<svg width="100" height="100" viewBox="0 0 100 100" xmlns="http://www.w3.org/2000/svg">
  <defs>
    <radialGradient id="backgroundGradient" cx="50%" cy="50%" r="50%">
      <stop offset="0%" style="stop-color:#4ade80;stop-opacity:0.8" />
      <stop offset="100%" style="stop-color:#166534;stop-opacity:1" />
    </radialGradient>
    <linearGradient id="symbolGradient" x1="0%" y1="0%" x2="100%" y2="100%">
      <stop offset="0%" style="stop-color:#10b981;stop-opacity:1" />
      <stop offset="100%" style="stop-color:#065f46;stop-opacity:1" />
    </linearGradient>
  </defs>
  
  <!-- Background circle -->
  <circle cx="50" cy="50" r="50" fill="url(#backgroundGradient)" />
  
  <!-- Genesis recursive symbol - four interlocking circles forming a flower pattern -->
  <g transform="translate(50,50)" stroke="url(#symbolGradient)" stroke-width="2.5" fill="none" opacity="0.9">
    <!-- Top circle -->
    <circle cx="0" cy="-12" r="15" />
    <!-- Right circle -->
    <circle cx="12" cy="0" r="15" />
    <!-- Bottom circle -->
    <circle cx="0" cy="12" r="15" />
    <!-- Left circle -->
    <circle cx="-12" cy="0" r="15" />
    
    <!-- Center connecting element -->
    <circle cx="0" cy="0" r="4" fill="url(#symbolGradient)" opacity="0.8" />
    
    <!-- Radiating lines from center -->
    <g stroke-width="1.5" opacity="0.6">
      <line x1="0" y1="-8" x2="0" y2="-18" />
      <line x1="8" y1="0" x2="18" y2="0" />
      <line x1="0" y1="8" x2="0" y2="18" />
      <line x1="-8" y1="0" x2="-18" y2="0" />
      <line x1="5.7" y1="-5.7" x2="12.7" y2="-12.7" />
      <line x1="5.7" y1="5.7" x2="12.7" y2="12.7" />
      <line x1="-5.7" y1="5.7" x2="-12.7" y2="12.7" />
      <line x1="-5.7" y1="-5.7" x2="-12.7" y2="-12.7" />
    </g>
  </g>
</svg>
